<svg class="ldi-nk2kql" width="200px" height="200px" xmlns="http://www.w3.org/2000/svg" xmlns:xlink="http://www.w3.org/1999/xlink" viewBox="0 0 100 100" preserveAspectRatio="xMidYMid" style="animation-play-state: running; animation-delay: 0s; background: none;"><!--?xml version="1.0" encoding="utf-8"?--><!--Generator: Adobe Illustrator 21.0.0, SVG Export Plug-In . SVG Version: 6.00 Build 0)--><svg version="1.1" id="圖層_1" xmlns="http://www.w3.org/2000/svg" xmlns:xlink="http://www.w3.org/1999/xlink" x="0px" y="0px" viewBox="0 0 100 100" style="transform-origin: 50px 50px 0px; animation-play-state: running; animation-delay: 0s;" xml:space="preserve"><g style="transform-origin: 50px 50px 0px; animation-play-state: running; animation-delay: 0s;"><g fill="rgb(0, 0, 0)" style="fill: rgb(0, 0, 0); transform-origin: 50px 50px 0px; transform: scale(0.6); animation-play-state: running; animation-delay: 0s;"><g style="transform-origin: 50px 50px 0px; animation-play-state: running; animation-delay: 0s;"><g fill="rgb(0, 0, 0)" style="fill: rgb(0, 0, 0); animation-play-state: running; animation-delay: 0s;"><style type="text/css" class="ld ld-fade" style="transform-origin: 50px 50px 0px; animation-duration: 1.6s; animation-delay: -1.6s; animation-direction: normal; animation-play-state: running;">.st0{fill:#f47e60;stroke:#333;stroke-width:3;stroke-miterlimit:10}.st1,.st2{stroke-linecap:round;stroke-linejoin:round}.st1{stroke:#333;stroke-width:3;stroke-miterlimit:10;fill:#e0e0e0}.st2{fill:#fff}.st2,.st3,.st4,.st5,.st6{stroke:#333;stroke-width:3;stroke-miterlimit:10}.st3{stroke-linecap:round;stroke-linejoin:round;fill:#666}.st4,.st5,.st6{fill:#c33737}.st5,.st6{fill:#666}.st6{fill:#e0e0e0}.st7{fill:#f47e60;stroke-linecap:round;stroke-linejoin:round}.st10,.st7,.st8,.st9{stroke:#333;stroke-width:3;stroke-miterlimit:10}.st8{stroke-linecap:round;stroke-linejoin:round;fill:none}.st10,.st9{fill:#f8b26a}.st10{fill:#e15b64;stroke-linecap:round;stroke-linejoin:round}.st11{fill:#333}.st12,.st13,.st14{fill:#a0c8d7;stroke:#333;stroke-width:3;stroke-linecap:round;stroke-linejoin:round;stroke-miterlimit:10}.st13,.st14{fill:#f8b26a}.st14{fill:#f5e169}.st15{fill:#fff}.st16,.st17,.st18{fill:#fff;stroke:#333;stroke-width:3;stroke-miterlimit:10}.st17,.st18{fill:#a0c8d7}.st18{fill:#f5e6c8}.st19{fill:#abbd81}.st19,.st20,.st21{stroke:#333;stroke-width:3;stroke-miterlimit:10}.st20{stroke-linecap:round;stroke-linejoin:round;fill:#77a4bd}.st21{fill:#abbd81}.st21,.st22,.st23{stroke-linecap:round;stroke-linejoin:round}.st22{stroke:#333;stroke-width:3;stroke-miterlimit:10;fill:#849b87}.st23{fill:#fdfdfd}.st23,.st24,.st25{stroke:#333;stroke-width:3;stroke-miterlimit:10}.st24{stroke-linecap:round;stroke-linejoin:round;fill:#c33737}.st25{fill:#e15b64}.st26{fill:#f5e6c8;stroke-linecap:round;stroke-linejoin:round}.st26,.st27,.st28,.st29,.st30,.st31,.st32{stroke:#333;stroke-width:3;stroke-miterlimit:10}.st27{stroke-linecap:round;stroke-linejoin:round;fill:#66503a}.st28,.st29,.st30,.st31,.st32{fill:#849b87}.st29,.st30,.st31,.st32{fill:#77a4bd}.st30,.st31,.st32{fill:#66503a}.st31,.st32{fill:#4a3827}.st32{stroke-linecap:round;stroke-linejoin:round}</style><g style="transform-origin: 50px 50px 0px; animation-play-state: running; animation-delay: 0s;"><g fill="rgb(0, 0, 0)" style="fill: rgb(0, 0, 0); animation-play-state: running; animation-delay: 0s;"><g class="ld ld-fade" style="transform-origin: 50px 50px 0px; animation-duration: 1.6s; animation-delay: -1.5s; animation-direction: normal; animation-play-state: running;"><path class="st11" d="M46.3,21.9c0.5,1.3,0.9,2.7,1.4,4.1c0.6,1.9,1.2,3.8,1.7,5.8c0.1-0.2,0.1-0.4,0.2-0.6 c1.1-3.2,2.2-6.2,3.4-9.3c0.2-0.5,0.4-1,0.6-1.4c0.2-0.5,0.4-1,0.6-1.4h-9.1c0.2,0.5,0.4,1,0.6,1.4C45.9,20.9,46.1,21.4,46.3,21.9z " fill="rgb(51, 51, 51)" style="fill: rgb(51, 51, 51); animation-play-state: running; animation-delay: 0s;"></path></g><g class="ld ld-fade" style="transform-origin: 50px 50px 0px; animation-duration: 1.6s; animation-delay: -1.4s; animation-direction: normal; animation-play-state: running;"><path class="st11" d="M27,57.1c0-1.7-0.1-3.3-0.1-4.9c-0.2-3.7-0.7-6.9-1.1-9.1c-0.2-0.8,0.3-1.6,1.1-1.7c0.8-0.2,1.6,0.3,1.7,1.1 c0.2,0.9,0.4,2.2,0.6,3.9v0c0.1,0.6,0.2,1.2,0.2,1.9c0.5,4.4,0.7,10.2,0.1,15.8h1H32h8.7c1.5-7.8,3.5-15.8,5.9-23.7 c0.4-1.3,0.8-2.5,1.2-3.8c-0.9-3.3-1.8-6.5-2.8-9.6c-0.6-1.8-1.2-3.6-1.9-5.4c-0.9-2.3-1.8-4.6-2.8-6.7c-0.4-0.8-0.7-1.5-1.1-2.3v0 c-0.2-0.4-0.4-0.9-0.7-1.3c-1.2,0.6-2.5,1.2-3.8,1.8c-2.7,1.2-5.6,2.5-8.1,4.4c-4.2,3.2-6.3,8.5-8.1,13.1l-0.5,1.3 c-0.7,1.7-3.6,11.4-6,19.5C7,69.3,7.3,69.8,7.7,70.5c0.2,0.4,0.6,0.7,1.1,0.7c0.1,0,13.9,2.2,13.9,2.2c0.7,0.1,1.4-0.3,1.6-1 l2.4-8.5C26.9,61.6,27,59.4,27,57.1z" fill="rgb(51, 51, 51)" style="fill: rgb(51, 51, 51); animation-play-state: running; animation-delay: 0s;"></path></g><g class="ld ld-fade" style="transform-origin: 50px 50px 0px; animation-duration: 1.6s; animation-delay: -1.3s; animation-direction: normal; animation-play-state: running;"><path class="st11" d="M30,70.9h-1.5c-0.3,2.2-0.8,4.3-1.4,6.4l-2.6,9.4c-0.1,0.4,0,0.9,0.2,1.3c0.3,0.4,0.7,0.6,1.2,0.6h11.6 c0-0.5,0.1-1,0.1-1.4v0c0-0.5,0.1-1,0.1-1.4c0.3-4.7,0.9-9.6,1.8-14.7h-8H30z" fill="rgb(51, 51, 51)" style="fill: rgb(51, 51, 51); animation-play-state: running; animation-delay: 0s;"></path></g><g class="ld ld-fade" style="transform-origin: 50px 50px 0px; animation-duration: 1.6s; animation-delay: -1.2s; animation-direction: normal; animation-play-state: running;"><path class="st11" d="M72.3,77.3c-0.6-2.1-1-4.3-1.4-6.4h-1.5H68h-8.5l4,8.8c0.2,0.4,0.2,0.8,0,1.2c-0.2,0.4-0.5,0.7-0.8,0.8 l-3.1,1.1l-0.3,0.1L58,83.4l-0.2,0.1l-0.7,0.3l-0.4,0.1c0,0-0.1,0-0.1,0c-0.1,0-0.1,0-0.2,0c-0.1,0-0.1,0-0.2,0 c-0.2,0-0.4-0.1-0.7-0.2c-0.4-0.2-0.6-0.5-0.7-0.9l-3.5-12h-7.2h-0.4h-1.2c-0.2,1.2-0.4,2.3-0.5,3.5c-0.4,3-0.8,5.9-1.1,8.8 c-0.1,0.8-0.1,1.6-0.2,2.4c0,0.5-0.1,1-0.1,1.4v0c0,0.4-0.1,0.8-0.1,1.1c0,0.1,0,0.2,0,0.3h0.9H57h1.1h0.2h0.2h1.5h13.5 c0.5,0,0.9-0.2,1.2-0.6c0.3-0.4,0.4-0.8,0.2-1.3L72.3,77.3z" fill="rgb(51, 51, 51)" style="fill: rgb(51, 51, 51); animation-play-state: running; animation-delay: 0s;"></path></g><g class="ld ld-fade" style="transform-origin: 50px 50px 0px; animation-duration: 1.6s; animation-delay: -1.1s; animation-direction: normal; animation-play-state: running;"><path class="st11" d="M87.6,51.3c-2.7-8.8-5.6-18-6.3-19.5l-0.2-0.5c-1.9-4.6-4.1-9.9-8.3-13.3c-1.6-1.3-3.4-2.4-5.2-3.3 c-1.1-0.6-2.2-1.1-3.3-1.6c-1.2-0.5-2.3-1.1-3.5-1.7c-0.2,0.4-0.4,0.9-0.6,1.3c-0.6,1.3-1.2,2.5-1.8,3.8c-0.7,1.7-1.5,3.4-2.2,5.1 c-1.8,4.5-3.5,9.1-5.1,13.9c-0.1,0.4-0.3,0.8-0.4,1.2c-0.1,0.4-0.3,0.8-0.4,1.2c-0.1,0.5-0.3,0.9-0.4,1.4c-0.1,0.3-0.2,0.6-0.3,1 c-0.2,0.6-0.4,1.2-0.5,1.8c-0.4,1.3-0.8,2.6-1.1,4c-1.7,6-3.1,12.1-4.3,18h0.8h1.4h6.5h1.1h1.5H55h1.4h0.1h1.5h9.5h1.4h1.4 c0-0.5,0-0.9,0-1.4v-0.4c-0.4-4.4-0.2-8.9,0.1-12.5c0.1-1.1,0.2-2.2,0.3-3.2c0.2-1.8,0.5-3.2,0.7-4.1c0.2-0.8,0.9-1.3,1.7-1.1 c0.8,0.2,1.3,0.9,1.1,1.7c-0.5,2.5-1,6.4-1.2,10.8c-0.1,1.7-0.1,3.5,0,5.3c0.1,2.7,0.3,5.4,0.8,7.9c0,0.2,0,0.4,0,0.6l1.3,4.6 c0.2,0.7,0.9,1.2,1.6,1c0,0,14.3-2.3,14.5-2.3c0.4-0.1,0.9-0.4,1.1-0.8C92.7,69.7,93,69.1,87.6,51.3z" fill="rgb(51, 51, 51)" style="fill: rgb(51, 51, 51); animation-play-state: running; animation-delay: 0s;"></path></g></g></g><metadata xmlns:d="https://loading.io/stock/" class="ld ld-fade" style="transform-origin: 50px 50px 0px; animation-duration: 1.6s; animation-delay: -1s; animation-direction: normal; animation-play-state: running;">
<d:name class="ld ld-fade" style="transform-origin: 50px 50px 0px; animation-duration: 1.6s; animation-delay: -0.9s; animation-direction: normal; animation-play-state: running;">dobok</d:name>
<d:tags class="ld ld-fade" style="transform-origin: 50px 50px 0px; animation-duration: 1.6s; animation-delay: -0.8s; animation-direction: normal; animation-play-state: running;">dobok,taoist cloth,judo,judogi,karate,taekwondo</d:tags>
<d:license class="ld ld-fade" style="transform-origin: 50px 50px 0px; animation-duration: 1.6s; animation-delay: -0.7s; animation-direction: normal; animation-play-state: running;">cc-by</d:license>
<d:slug class="ld ld-fade" style="transform-origin: 50px 50px 0px; animation-duration: 1.6s; animation-delay: -0.6s; animation-direction: normal; animation-play-state: running;">nk2kql</d:slug>
</metadata></g></g></g></g><style type="text/css" class="ld ld-fade" style="transform-origin: 50px 50px 0px; animation-duration: 1.6s; animation-delay: -0.5s; animation-direction: normal; animation-play-state: running;">path,ellipse,circle,rect,polygon,polyline,line { stroke-width: 0; }@keyframes ld-fade {
  0% {
    opacity: 1;
  }
  100% {
    opacity: 0;
  }
}
@-webkit-keyframes ld-fade {
  0% {
    opacity: 1;
  }
  100% {
    opacity: 0;
  }
}
.ld.ld-fade {
  -webkit-animation: ld-fade 1s infinite linear;
  animation: ld-fade 1s infinite linear;
}
</style></svg></svg>